# xmcd CD database file
#
# Track frame offsets:
#	150
#	67460
#	84067
#	93091
#	119609
#	141238
#	194612
#	217363
#	243798
#	264109
#	280598
#	332198
#
# Disc length: 4668 seconds
#
# Revision: 2
# Processed by: cddbd v1.5.2PL0 Copyright (c) Steve Scherf et al.
# Submitted via: CDex 1.79
#
DISCID=b5123a0c
DTITLE=Miles Davis - The Genius Of Jazz [CD3)
DYEAR=2012
DGENRE=Jazz
TTITLE0=My Funny Valentine
TTITLE1=Sweet Sue, Just You
TTITLE2=Nothing Like You
TTITLE3=Circle
TTITLE4=Pee Wee
TTITLE5=Love For Sale
TTITLE6=In A Silent Way
TTITLE7=Shout
TTITLE8=Human Nature
TTITLE9=Time After Time
TTITLE10=It's About That Time
TTITLE11=Jean Pierre
EXTD=YEAR: 2012
EXTT0=
EXTT1=
EXTT2=
EXTT3=
EXTT4=
EXTT5=
EXTT6=
EXTT7=
EXTT8=
EXTT9=
EXTT10=
EXTT11=
PLAYORDER=
